<svg xmlns="http://www.w3.org/2000/svg" viewBox="0 0 522.72 183.78"><defs><style>.cls{fill:#000;}</style></defs><title>ayty</title><g id="Layer_1" data-name="Layer 1"><path class="cls" d="M115.47,27.38C102.72,9.72,85.65,0,67.41,0S32.09,9.72,19.35,27.38C6.87,44.66,0,67.57,0,91.89s6.87,47.23,19.35,64.51c12.75,17.66,29.82,27.38,48.06,27.38s35.31-9.72,48.06-27.37c12.48-17.29,19.35-40.2,19.35-64.51S127.95,44.66,115.47,27.38ZM67.41,176.16c-33,0-59.78-37.8-59.78-84.26S34.45,7.63,67.41,7.63c11.91,0,23,4.94,32.36,13.44q2.25,2.06,4.36,4.38c11,12.08,18.89,29.44,21.81,49.34a117.72,117.72,0,0,1,1.24,17.1q0,3.83-.25,7.58A109,109,0,0,1,119.55,133q-1.19,3-2.56,5.87A84.53,84.53,0,0,1,109,152.29a65.49,65.49,0,0,1-14.83,14.9A46,46,0,0,1,67.41,176.16Z"/><path class="cls" d="M125.95,74.8c-7.46-16.91-20.88-29.12-36.66-32.12A40.78,40.78,0,0,0,81.75,42h0C53.84,42,31.16,70.5,31.16,105.57s22.68,63.59,50.56,63.59a40.6,40.6,0,0,0,12.5-2c21.85-7,38.05-32,38.05-61.62A76.18,76.18,0,0,0,125.95,74.8Zm-5.15,60.64q-1.29,2.79-2.82,5.39A54.34,54.34,0,0,1,109,152.29a42.88,42.88,0,0,1-13.43,9,36.77,36.77,0,0,1-4.78,1.61,35.63,35.63,0,0,1-9.12,1.18c-25.07,0-45.47-26.24-45.47-58.5s20.4-58.51,45.47-58.51c23.47,0,42.85,23,45.22,52.41.16,2,.25,4,.25,6.1A71.2,71.2,0,0,1,120.8,135.44Z"/><rect class="cls" x="102.12" y="74.38" width="4.99" height="70.48" transform="translate(-38.71 60.43) rotate(-27.4)"/><rect class="cls" x="75.41" y="97.28" width="4.98" height="70.48" transform="translate(-52.24 50.71) rotate(-27.4)"/><polygon class="cls" points="105.9 23.41 104.14 25.46 89.28 42.68 85.76 46.77 81.09 42.74 81.75 41.97 99.77 21.08 101.23 19.38 105.9 23.41"/><rect class="cls" x="54.37" y="17.49" width="24.17" height="5.08"/><path class="cls" d="M423.52,47.53H339.67c-3.81,0-3.81,5.9,0,5.9h37c-.15,14.08-1.13,28.52.24,42.49a51.76,51.76,0,0,0,9.08,25.2c8.46,11.75,22.16,16.42,36.21,16.6,3.81,0,3.81-5.85,0-5.91-13.61-.18-26-5-33.26-16.92a46.29,46.29,0,0,1-6.29-21.08c-.83-13.37-.18-27-.07-40.39h40.91C427.33,53.44,427.33,47.53,423.52,47.53Z"/><path class="cls" d="M210.73,51.3a52.74,52.74,0,0,0-38-1.45C157.6,55.15,148.44,69.32,146,84.69c-2.39,15.14,2.44,31.53,14.29,41.57a50.08,50.08,0,0,0,30.57,11.22c3.81.05,3.8-5.85,0-5.9a43.45,43.45,0,0,1-30.12-13C150.67,107.9,149.38,91.44,153.66,78c5.4-17,21.32-26.15,38.81-25.08,14.42.89,28.37,8.13,34.65,21.54,4.53,9.67,3.3,21.44,3.3,31.85v28.22c0,3.81,5.9,3.81,5.9,0V92.68C236.34,74.39,227.91,58.58,210.73,51.3Z"/><path class="cls" d="M331.9,49.4c0-3.81-5.85-3.81-5.91,0-.2,15.21-6.59,27.93-20.48,34.73a45.07,45.07,0,0,1-18.79,4.54c-15.12.14-28.12-6.7-35-20.31A45.71,45.71,0,0,1,247,48.91c0-3.81-5.94-3.81-5.9,0a54.09,54.09,0,0,0,6,23.26c7.37,14.67,22.08,21.75,38,22.38,8.28.33,16.88-2.13,24.24-5.73a38,38,0,0,0,16.9-16.26c.06,6.73,0,13.45-.27,20.15a47.58,47.58,0,0,1-5.83,20.58c-6.89,12.51-20,17.57-33.74,17.75-3.8,0-3.81,6,0,5.91,13.7-.18,27.07-4.58,35.6-15.81,5.63-7.41,8.55-16.33,9.63-25.49.63-5.33.28-10.82.28-16.16Z"/><path class="cls" d="M522.62,80.26V50.19c0-3.81-5.85-3.81-5.9,0-.2,15.21-6.59,27.93-20.48,34.73a45.13,45.13,0,0,1-18.79,4.54c-15.12.14-28.12-6.7-35-20.31a45.74,45.74,0,0,1-4.8-19.45c0-3.81-5.94-3.81-5.9,0a54,54,0,0,0,6,23.26c7.37,14.67,22.07,21.75,38,22.38,8.27.33,16.88-2.13,24.23-5.73A38,38,0,0,0,517,73.34c.06,6.73,0,13.46-.27,20.15a47.55,47.55,0,0,1-5.83,20.58c-6.89,12.52-20,17.57-33.75,17.75-3.8,0-3.81,6,0,5.9,13.71-.18,27.07-4.58,35.61-15.81,5.63-7.4,8.55-16.33,9.63-25.49C523,91.09,522.62,85.61,522.62,80.26Z"/></g></svg>