<svg xmlns="http://www.w3.org/2000/svg" viewBox="0 0 331.78 252.5"><defs><style>.cls{fill:#FFF;}</style></defs><title>ayty</title><g id="Layer_1" data-name="Layer 1"><path class="cls" d="M208,24.08C196.77,8.55,181.77,0,165.72,0s-31.06,8.55-42.27,24.08c-11,15.19-17,35.34-17,56.73s6,41.53,17,56.73c11.22,15.52,26.22,24.07,42.27,24.07s31-8.55,42.26-24.07c11-15.2,17-35.35,17-56.73S219,39.27,208,24.08ZM165.72,154.9c-29,0-52.57-33.24-52.57-74.09S136.74,6.71,165.72,6.71c10.47,0,20.25,4.35,28.46,11.82q2,1.81,3.84,3.85C207.67,33,214.63,48.27,217.2,65.77a103.51,103.51,0,0,1,1.09,15q0,3.37-.22,6.66a95.87,95.87,0,0,1-6.5,29.52q-1,2.65-2.25,5.16a74.19,74.19,0,0,1-7,11.76,57.55,57.55,0,0,1-13,13.1A40.44,40.44,0,0,1,165.72,154.9Z"/><path class="cls" d="M217.2,65.77C210.64,50.9,198.84,40.16,185,37.53a35.73,35.73,0,0,0-6.62-.62h0c-24.51,0-44.46,25.09-44.46,55.92s19.94,55.92,44.46,55.92a35.72,35.72,0,0,0,11-1.73c19.21-6.17,33.46-28.12,33.46-54.19A67,67,0,0,0,217.2,65.77Zm-4.53,53.32q-1.14,2.46-2.48,4.74a47.75,47.75,0,0,1-7.85,10.08,37.65,37.65,0,0,1-11.81,7.89,32.06,32.06,0,0,1-4.21,1.42,31.4,31.4,0,0,1-8,1c-22,0-40-23.08-40-51.44s17.94-51.45,40-51.45c20.64,0,37.68,20.22,39.77,46.09.14,1.76.22,3.55.22,5.36A62.62,62.62,0,0,1,212.67,119.1Z"/><rect class="cls" x="196.24" y="65.41" width="4.38" height="61.98" transform="translate(-22.1 102.12) rotate(-27.4)"/><rect class="cls" x="172.76" y="85.54" width="4.38" height="61.98" transform="translate(-34 93.58) rotate(-27.4)"/><polygon class="cls" points="199.57 20.58 198.02 22.38 184.96 37.53 181.86 41.12 177.76 37.58 178.34 36.91 194.18 18.53 195.47 17.04 199.57 20.58"/><rect class="cls" x="154.26" y="15.38" width="21.25" height="4.47"/><path class="cls" d="M244.55,173.19H170.82c-3.35,0-3.35,5.19,0,5.19h32.56c-.13,12.39-1,25.08.22,37.36a45.5,45.5,0,0,0,8,22.16c7.44,10.34,19.49,14.44,31.84,14.6,3.35,0,3.35-5.15,0-5.19-12-.16-22.83-4.4-29.25-14.88a40.71,40.71,0,0,1-5.53-18.53c-.73-11.75-.16-23.71-.07-35.51h36C247.9,178.38,247.9,173.19,244.55,173.19Z"/><path class="cls" d="M57.44,176.5a46.38,46.38,0,0,0-33.38-1.27C10.72,179.88,2.66,192.35.52,205.86c-2.11,13.31,2.14,27.73,12.57,36.55A44,44,0,0,0,40,252.28c3.35,0,3.35-5.15,0-5.19a38.21,38.21,0,0,1-26.49-11.45c-8.86-9.37-10-23.85-6.23-35.67C12,185.06,26,177,41.39,177.92c12.68.78,24.95,7.14,30.47,18.94,4,8.5,2.9,18.85,2.9,28v24.82c0,3.35,5.19,3.35,5.19,0v-36.8C80,196.8,72.54,182.9,57.44,176.5Z"/><path class="cls" d="M164,174.83c0-3.35-5.15-3.35-5.19,0-.18,13.37-5.8,24.56-18,30.54a39.64,39.64,0,0,1-16.52,4c-13.29.12-24.73-5.89-30.74-17.86a40.18,40.18,0,0,1-4.22-17.1c0-3.35-5.22-3.35-5.19,0a47.52,47.52,0,0,0,5.3,20.45c6.48,12.9,19.41,19.12,33.42,19.68,7.28.29,14.85-1.88,21.31-5A33.38,33.38,0,0,0,159,195.2c0,5.92,0,11.83-.24,17.72A41.81,41.81,0,0,1,153.63,231c-6.06,11-17.58,15.45-29.67,15.61-3.35,0-3.35,5.23,0,5.19,12.05-.16,23.8-4,31.31-13.9,5-6.51,7.52-14.36,8.47-22.41.55-4.69.24-9.51.24-14.21Z"/><path class="cls" d="M331.69,202V175.52c0-3.35-5.15-3.35-5.19,0-.18,13.37-5.8,24.56-18,30.54a39.69,39.69,0,0,1-16.52,4c-13.29.12-24.73-5.89-30.74-17.86a40.25,40.25,0,0,1-4.22-17.1c0-3.35-5.22-3.35-5.19,0a47.5,47.5,0,0,0,5.3,20.45c6.48,12.9,19.41,19.12,33.41,19.68,7.28.29,14.85-1.88,21.31-5a33.39,33.39,0,0,0,14.86-14.3c0,5.92,0,11.83-.24,17.72a41.85,41.85,0,0,1-5.13,18.1c-6.06,11-17.58,15.45-29.67,15.61-3.34,0-3.35,5.24,0,5.19,12.05-.16,23.8-4,31.31-13.9,5-6.51,7.52-14.36,8.47-22.41C332,211.49,331.69,206.67,331.69,202Z"/></g></svg>